<svg width="42" height="42" viewBox="0 0 42 42" fill="none" xmlns="http://www.w3.org/2000/svg">
<path d="M17.2547 24.6939C20.8175 19.7247 18.4267 14.4188 16.7859 12.387L19.9503 12.8514V11.342C20.6535 10.0417 21.4372 10.8002 21.7411 11.342V13.6641C29.315 18.4011 26.0719 22.991 23.5037 24.6939H21.7411V26.8999H23.8813C24.7123 26.8999 26.0604 25.6614 26.6306 25.0422L32.0803 23.649V25.0422C31.0959 24.9493 30.1075 26.0097 29.7364 26.5516C27.8143 30.0811 26.279 30.8474 25.7516 30.7893H14.7349C10.2814 29.6283 9.55867 26.2419 9.754 24.6939H15.1451C14.9576 27.2946 18.2704 27.2482 19.9503 26.8999V24.6939H17.2547Z" fill="white"/>
<path d="M17.2547 24.6939C20.8175 19.7247 18.4267 14.4188 16.7859 12.387L19.9503 12.8514V11.342C20.6535 10.0417 21.4372 10.8002 21.7411 11.342V13.6641C29.315 18.4011 26.0719 22.991 23.5037 24.6939H21.7411V26.8999H23.8813C24.7123 26.8999 26.0604 25.6614 26.6306 25.0422L32.0803 23.649V25.0422C31.0959 24.9493 30.1075 26.0097 29.7364 26.5516C27.8143 30.0811 26.279 30.8474 25.7516 30.7893H14.7349C10.2814 29.6283 9.55867 26.2419 9.754 24.6939H15.1451C14.9576 27.2946 18.2704 27.2482 19.9503 26.8999V24.6939H17.2547Z" fill="white"/>
<path d="M15.9242 22.3728C18.4094 20.3144 16.9597 16.3356 15.9242 14.6035L10.9844 22.3728H15.9242Z" fill="white"/>
<path d="M15.9242 22.3728C18.4094 20.3144 16.9597 16.3356 15.9242 14.6035L10.9844 22.3728H15.9242Z" fill="white"/>
<path d="M41.1408 20.7078C41.1408 31.771 32.086 40.7501 20.9032 40.7501C9.72036 40.7501 0.665576 31.771 0.665576 20.7078C0.665576 9.64467 9.72036 0.665576 20.9032 0.665576C32.086 0.665576 41.1408 9.64467 41.1408 20.7078Z" stroke="white" stroke-opacity="0.78" stroke-width="1.33115"/>
<path d="M41.1408 20.7078C41.1408 31.771 32.086 40.7501 20.9032 40.7501C9.72036 40.7501 0.665576 31.771 0.665576 20.7078C0.665576 9.64467 9.72036 0.665576 20.9032 0.665576C32.086 0.665576 41.1408 9.64467 41.1408 20.7078Z" stroke="white" stroke-width="1.33115"/>
</svg>
