<svg width="43" height="42" viewBox="0 0 43 42" fill="none" xmlns="http://www.w3.org/2000/svg">
<path d="M41.9472 20.7078C41.9472 31.771 32.8924 40.7501 21.7096 40.7501C10.5268 40.7501 1.47197 31.771 1.47197 20.7078C1.47197 9.64467 10.5268 0.665576 21.7096 0.665576C32.8924 0.665576 41.9472 9.64467 41.9472 20.7078Z" stroke="white" stroke-opacity="0.78" stroke-width="1.33115"/>
<path d="M41.9472 20.7078C41.9472 31.771 32.8924 40.7501 21.7096 40.7501C10.5268 40.7501 1.47197 31.771 1.47197 20.7078C1.47197 9.64467 10.5268 0.665576 21.7096 0.665576C32.8924 0.665576 41.9472 9.64467 41.9472 20.7078Z" stroke="white" stroke-width="1.33115"/>
<g clip-path="url(#clip0_2_13520)">
<path d="M34.0224 13.3086C33.1393 13.6963 32.1907 13.9582 31.1934 14.0766C32.2224 13.4666 32.9923 12.5066 33.3593 11.3756C32.3925 11.9445 31.3344 12.3449 30.2309 12.5595C29.4889 11.7746 28.5061 11.2544 27.435 11.0796C26.3639 10.9048 25.2646 11.0852 24.3076 11.5927C23.3506 12.1003 22.5895 12.9067 22.1426 13.8867C21.6956 14.8666 21.5877 15.9654 21.8357 17.0123C19.8767 16.9149 17.9603 16.4105 16.2108 15.5318C14.4613 14.6531 12.9178 13.4199 11.6806 11.912C11.2576 12.635 11.0143 13.4731 11.0143 14.3658C11.0139 15.1694 11.2136 15.9607 11.5959 16.6694C11.9781 17.3782 12.5311 17.9826 13.2057 18.4288C12.4233 18.4042 11.6583 18.1948 10.9741 17.818V17.8809C10.9741 19.008 11.3676 20.1003 12.088 20.9727C12.8084 21.845 13.8112 22.4436 14.9264 22.6669C14.2006 22.8614 13.4398 22.8901 12.7012 22.7507C13.0158 23.7205 13.6287 24.5685 14.454 25.1761C15.2794 25.7836 16.2758 26.1203 17.3039 26.139C15.5587 27.4962 13.4033 28.2324 11.1846 28.2292C10.7916 28.2293 10.3989 28.2066 10.0085 28.1611C12.2607 29.5956 14.8823 30.3569 17.5598 30.354C26.6235 30.354 31.5783 22.9173 31.5783 16.4675C31.5783 16.258 31.573 16.0463 31.5635 15.8368C32.5273 15.1463 33.3592 14.2913 34.0203 13.3118L34.0224 13.3086Z" fill="white"/>
<path d="M34.0224 13.3086C33.1393 13.6963 32.1907 13.9582 31.1934 14.0766C32.2224 13.4666 32.9923 12.5066 33.3593 11.3756C32.3925 11.9445 31.3344 12.3449 30.2309 12.5595C29.4889 11.7746 28.5061 11.2544 27.435 11.0796C26.3639 10.9048 25.2646 11.0852 24.3076 11.5927C23.3506 12.1003 22.5895 12.9067 22.1426 13.8867C21.6956 14.8666 21.5877 15.9654 21.8357 17.0123C19.8767 16.9149 17.9603 16.4105 16.2108 15.5318C14.4613 14.6531 12.9178 13.4199 11.6806 11.912C11.2576 12.635 11.0143 13.4731 11.0143 14.3658C11.0139 15.1694 11.2136 15.9607 11.5959 16.6694C11.9781 17.3782 12.5311 17.9826 13.2057 18.4288C12.4233 18.4042 11.6583 18.1948 10.9741 17.818V17.8809C10.9741 19.008 11.3676 20.1003 12.088 20.9727C12.8084 21.845 13.8112 22.4436 14.9264 22.6669C14.2006 22.8614 13.4398 22.8901 12.7012 22.7507C13.0158 23.7205 13.6287 24.5685 14.454 25.1761C15.2794 25.7836 16.2758 26.1203 17.3039 26.139C15.5587 27.4962 13.4033 28.2324 11.1846 28.2292C10.7916 28.2293 10.3989 28.2066 10.0085 28.1611C12.2607 29.5956 14.8823 30.3569 17.5598 30.354C26.6235 30.354 31.5783 22.9173 31.5783 16.4675C31.5783 16.258 31.573 16.0463 31.5635 15.8368C32.5273 15.1463 33.3592 14.2913 34.0203 13.3118L34.0224 13.3086Z" fill="white"/>
</g>
<defs>
<clipPath id="clip0_2_13520">
<rect width="25.3824" height="25.1452" fill="white" transform="translate(9.01733 8.13525)"/>
</clipPath>
</defs>
</svg>
