<svg width="43" height="42" viewBox="0 0 43 42" fill="none" xmlns="http://www.w3.org/2000/svg">
<path d="M41.7536 20.7078C41.7536 31.771 32.6988 40.7501 21.516 40.7501C10.3331 40.7501 1.27837 31.771 1.27837 20.7078C1.27837 9.64467 10.3331 0.665576 21.516 0.665576C32.6988 0.665576 41.7536 9.64467 41.7536 20.7078Z" stroke="white" stroke-opacity="0.78" stroke-width="1.33115"/>
<path d="M41.7536 20.7078C41.7536 31.771 32.6988 40.7501 21.516 40.7501C10.3331 40.7501 1.27837 31.771 1.27837 20.7078C1.27837 9.64467 10.3331 0.665576 21.516 0.665576C32.6988 0.665576 41.7536 9.64467 41.7536 20.7078Z" stroke="white" stroke-width="1.33115"/>
<path d="M30.9261 10.8886C29.195 10.1164 27.3395 9.54563 25.399 9.22108C25.3817 9.21779 25.3639 9.21991 25.3478 9.22713C25.3318 9.23434 25.3185 9.24631 25.3096 9.26136C25.072 9.67433 24.8073 10.2126 24.6217 10.6379C22.5637 10.3338 20.4715 10.3338 18.4135 10.6379C18.2068 10.1666 17.9737 9.70703 17.7154 9.26136C17.7066 9.24612 17.6934 9.23389 17.6774 9.22629C17.6614 9.21869 17.6435 9.21609 17.626 9.21884C15.6867 9.54339 13.8311 10.1141 12.0989 10.8875C12.084 10.8937 12.0713 10.9042 12.0627 10.9177C8.54159 16.0378 7.57647 21.0314 8.05055 25.9623C8.05186 25.9744 8.05565 25.9861 8.06168 25.9966C8.06771 26.0072 8.07586 26.0165 8.08562 26.0238C10.1408 27.5038 12.433 28.6312 14.8664 29.3589C14.8833 29.364 14.9015 29.364 14.9184 29.3588C14.9354 29.3537 14.9504 29.3435 14.9614 29.3298C15.4842 28.6359 15.9503 27.9029 16.3486 27.1329C16.3723 27.0882 16.3497 27.0344 16.3022 27.0165C15.5713 26.7443 14.8631 26.4157 14.1841 26.0339C14.1719 26.027 14.1616 26.0173 14.1542 26.0055C14.1468 25.9937 14.1424 25.9803 14.1415 25.9664C14.1406 25.9525 14.1432 25.9386 14.1491 25.926C14.1549 25.9134 14.1639 25.9024 14.1751 25.894C14.3176 25.7899 14.4602 25.6814 14.596 25.5728C14.6082 25.5631 14.6229 25.5569 14.6385 25.5549C14.6541 25.5529 14.6699 25.5552 14.6842 25.5616C19.1274 27.5358 23.9395 27.5358 28.3306 25.5616C28.345 25.5549 28.361 25.5522 28.3768 25.554C28.3926 25.5558 28.4075 25.5619 28.42 25.5717C28.5558 25.6814 28.6972 25.7899 28.8409 25.894C28.8522 25.9022 28.8613 25.9131 28.8673 25.9256C28.8734 25.9381 28.8762 25.9519 28.8755 25.9658C28.8749 25.9796 28.8707 25.9931 28.8635 26.005C28.8563 26.0169 28.8462 26.0268 28.8341 26.0339C28.1575 26.4189 27.4537 26.7446 26.7149 27.0154C26.7036 27.0195 26.6932 27.0259 26.6846 27.0342C26.6759 27.0426 26.6692 27.0527 26.6648 27.0638C26.6604 27.0749 26.6585 27.0868 26.6591 27.0987C26.6598 27.1107 26.663 27.1223 26.6685 27.1329C27.0758 27.9018 27.542 28.6337 28.0545 29.3287C28.0652 29.3429 28.08 29.3536 28.097 29.3592C28.1141 29.3648 28.1324 29.3651 28.1496 29.36C30.5871 28.6344 32.8831 27.5065 34.9405 26.0238C34.9506 26.0169 34.959 26.0079 34.9652 25.9975C34.9715 25.9871 34.9754 25.9755 34.9767 25.9634C35.5424 20.2625 34.0286 15.3092 30.9612 10.9199C30.9537 10.9057 30.9413 10.8945 30.9261 10.8886ZM17.0127 22.9596C15.6754 22.9596 14.5722 21.7633 14.5722 20.2961C14.5722 18.8278 15.6539 17.6325 17.0127 17.6325C18.3818 17.6325 19.4748 18.8378 19.4533 20.2961C19.4533 21.7644 18.3716 22.9596 17.0127 22.9596ZM26.036 22.9596C24.6975 22.9596 23.5955 21.7633 23.5955 20.2961C23.5955 18.8278 24.676 17.6325 26.036 17.6325C27.4051 17.6325 28.4981 18.8378 28.4766 20.2961C28.4766 21.7644 27.4062 22.9596 26.036 22.9596Z" fill="white"/>
<path d="M30.9261 10.8886C29.195 10.1164 27.3395 9.54563 25.399 9.22108C25.3817 9.21779 25.3639 9.21991 25.3478 9.22713C25.3318 9.23434 25.3185 9.24631 25.3096 9.26136C25.072 9.67433 24.8073 10.2126 24.6217 10.6379C22.5637 10.3338 20.4715 10.3338 18.4135 10.6379C18.2068 10.1666 17.9737 9.70703 17.7154 9.26136C17.7066 9.24612 17.6934 9.23389 17.6774 9.22629C17.6614 9.21869 17.6435 9.21609 17.626 9.21884C15.6867 9.54339 13.8311 10.1141 12.0989 10.8875C12.084 10.8937 12.0713 10.9042 12.0627 10.9177C8.54159 16.0378 7.57647 21.0314 8.05055 25.9623C8.05186 25.9744 8.05565 25.9861 8.06168 25.9966C8.06771 26.0072 8.07586 26.0165 8.08562 26.0238C10.1408 27.5038 12.433 28.6312 14.8664 29.3589C14.8833 29.364 14.9015 29.364 14.9184 29.3588C14.9354 29.3537 14.9504 29.3435 14.9614 29.3298C15.4842 28.6359 15.9503 27.9029 16.3486 27.1329C16.3723 27.0882 16.3497 27.0344 16.3022 27.0165C15.5713 26.7443 14.8631 26.4157 14.1841 26.0339C14.1719 26.027 14.1616 26.0173 14.1542 26.0055C14.1468 25.9937 14.1424 25.9803 14.1415 25.9664C14.1406 25.9525 14.1432 25.9386 14.1491 25.926C14.1549 25.9134 14.1639 25.9024 14.1751 25.894C14.3176 25.7899 14.4602 25.6814 14.596 25.5728C14.6082 25.5631 14.6229 25.5569 14.6385 25.5549C14.6541 25.5529 14.6699 25.5552 14.6842 25.5616C19.1274 27.5358 23.9395 27.5358 28.3306 25.5616C28.345 25.5549 28.361 25.5522 28.3768 25.554C28.3926 25.5558 28.4075 25.5619 28.42 25.5717C28.5558 25.6814 28.6972 25.7899 28.8409 25.894C28.8522 25.9022 28.8613 25.9131 28.8673 25.9256C28.8734 25.9381 28.8762 25.9519 28.8755 25.9658C28.8749 25.9796 28.8707 25.9931 28.8635 26.005C28.8563 26.0169 28.8462 26.0268 28.8341 26.0339C28.1575 26.4189 27.4537 26.7446 26.7149 27.0154C26.7036 27.0195 26.6932 27.0259 26.6846 27.0342C26.6759 27.0426 26.6692 27.0527 26.6648 27.0638C26.6604 27.0749 26.6585 27.0868 26.6591 27.0987C26.6598 27.1107 26.663 27.1223 26.6685 27.1329C27.0758 27.9018 27.542 28.6337 28.0545 29.3287C28.0652 29.3429 28.08 29.3536 28.097 29.3592C28.1141 29.3648 28.1324 29.3651 28.1496 29.36C30.5871 28.6344 32.8831 27.5065 34.9405 26.0238C34.9506 26.0169 34.959 26.0079 34.9652 25.9975C34.9715 25.9871 34.9754 25.9755 34.9767 25.9634C35.5424 20.2625 34.0286 15.3092 30.9612 10.9199C30.9537 10.9057 30.9413 10.8945 30.9261 10.8886ZM17.0127 22.9596C15.6754 22.9596 14.5722 21.7633 14.5722 20.2961C14.5722 18.8278 15.6539 17.6325 17.0127 17.6325C18.3818 17.6325 19.4748 18.8378 19.4533 20.2961C19.4533 21.7644 18.3716 22.9596 17.0127 22.9596ZM26.036 22.9596C24.6975 22.9596 23.5955 21.7633 23.5955 20.2961C23.5955 18.8278 24.676 17.6325 26.036 17.6325C27.4051 17.6325 28.4981 18.8378 28.4766 20.2961C28.4766 21.7644 27.4062 22.9596 26.036 22.9596Z" fill="white"/>
</svg>
