<svg width="43" height="42" viewBox="0 0 43 42" fill="none" xmlns="http://www.w3.org/2000/svg">
<path d="M41.56 20.7078C41.56 31.771 32.5052 40.7501 21.3224 40.7501C10.1395 40.7501 1.08477 31.771 1.08477 20.7078C1.08477 9.64467 10.1395 0.665576 21.3224 0.665576C32.5052 0.665576 41.56 9.64467 41.56 20.7078Z" stroke="white" stroke-opacity="0.78" stroke-width="1.33115"/>
<path d="M41.56 20.7078C41.56 31.771 32.5052 40.7501 21.3224 40.7501C10.1395 40.7501 1.08477 31.771 1.08477 20.7078C1.08477 9.64467 10.1395 0.665576 21.3224 0.665576C32.5052 0.665576 41.56 9.64467 41.56 20.7078Z" stroke="white" stroke-width="1.33115"/>
<g clip-path="url(#clip0_2_13529)">
<path d="M33.0701 15.9257C33.057 14.9455 32.8717 13.975 32.5227 13.0577C32.2201 12.2839 31.7579 11.5812 31.1656 10.9944C30.5733 10.4076 29.8639 9.94973 29.0829 9.64992C28.1688 9.31 27.2031 9.12619 26.227 9.10634C24.9702 9.05069 24.5717 9.03516 21.3813 9.03516C18.191 9.03516 17.7821 9.03516 16.5344 9.10634C15.5587 9.12634 14.5935 9.31014 13.6798 9.64992C12.8986 9.94952 12.1892 10.4074 11.5969 10.9942C11.0045 11.581 10.5424 12.2838 10.2399 13.0577C9.89613 13.9625 9.711 14.9189 9.69255 15.8856C9.63637 17.1319 9.61938 17.5267 9.61938 20.6872C9.61938 23.8477 9.61938 24.2515 9.69255 25.4888C9.71214 26.4569 9.89635 27.4121 10.2399 28.3193C10.5429 29.093 11.0054 29.7955 11.5979 30.382C12.1904 30.9686 12.9 31.4262 13.6811 31.7257C14.5923 32.0793 15.5577 32.2763 16.5357 32.3082C17.7938 32.3638 18.1923 32.3806 21.3827 32.3806C24.573 32.3806 24.9819 32.3806 26.2296 32.3082C27.2057 32.2891 28.1714 32.1057 29.0855 31.7659C29.8663 31.4657 30.5755 31.0077 31.1677 30.421C31.76 29.8342 32.2224 29.1317 32.5254 28.3581C32.8689 27.4522 33.0532 26.497 33.0728 25.5276C33.1289 24.2826 33.1459 23.8878 33.1459 20.726C33.1433 17.5655 33.1433 17.1643 33.0701 15.9257ZM21.3735 26.664C18.0368 26.664 15.3338 23.9862 15.3338 20.6807C15.3338 17.3752 18.0368 14.6975 21.3735 14.6975C22.9753 14.6975 24.5116 15.3278 25.6442 16.4499C26.7769 17.572 27.4132 19.0939 27.4132 20.6807C27.4132 22.2676 26.7769 23.7894 25.6442 24.9115C24.5116 26.0336 22.9753 26.664 21.3735 26.664ZM27.6536 15.8713C27.4686 15.8715 27.2854 15.8355 27.1144 15.7655C26.9435 15.6954 26.7882 15.5927 26.6574 15.4631C26.5266 15.3335 26.4228 15.1796 26.3521 15.0103C26.2814 14.8409 26.2451 14.6594 26.2453 14.4761C26.2453 14.293 26.2817 14.1117 26.3524 13.9425C26.4232 13.7733 26.5268 13.6195 26.6576 13.49C26.7883 13.3606 26.9435 13.2578 27.1142 13.1877C27.285 13.1177 27.4681 13.0816 27.653 13.0816C27.8378 13.0816 28.0209 13.1177 28.1917 13.1877C28.3624 13.2578 28.5176 13.3606 28.6483 13.49C28.7791 13.6195 28.8828 13.7733 28.9535 13.9425C29.0242 14.1117 29.0606 14.293 29.0606 14.4761C29.0606 15.2475 28.4309 15.8713 27.6536 15.8713Z" fill="white"/>
<path d="M33.0701 15.9257C33.057 14.9455 32.8717 13.975 32.5227 13.0577C32.2201 12.2839 31.7579 11.5812 31.1656 10.9944C30.5733 10.4076 29.8639 9.94973 29.0829 9.64992C28.1688 9.31 27.2031 9.12619 26.227 9.10634C24.9702 9.05069 24.5717 9.03516 21.3813 9.03516C18.191 9.03516 17.7821 9.03516 16.5344 9.10634C15.5587 9.12634 14.5935 9.31014 13.6798 9.64992C12.8986 9.94952 12.1892 10.4074 11.5969 10.9942C11.0045 11.581 10.5424 12.2838 10.2399 13.0577C9.89613 13.9625 9.711 14.9189 9.69255 15.8856C9.63637 17.1319 9.61938 17.5267 9.61938 20.6872C9.61938 23.8477 9.61938 24.2515 9.69255 25.4888C9.71214 26.4569 9.89635 27.4121 10.2399 28.3193C10.5429 29.093 11.0054 29.7955 11.5979 30.382C12.1904 30.9686 12.9 31.4262 13.6811 31.7257C14.5923 32.0793 15.5577 32.2763 16.5357 32.3082C17.7938 32.3638 18.1923 32.3806 21.3827 32.3806C24.573 32.3806 24.9819 32.3806 26.2296 32.3082C27.2057 32.2891 28.1714 32.1057 29.0855 31.7659C29.8663 31.4657 30.5755 31.0077 31.1677 30.421C31.76 29.8342 32.2224 29.1317 32.5254 28.3581C32.8689 27.4522 33.0532 26.497 33.0728 25.5276C33.1289 24.2826 33.1459 23.8878 33.1459 20.726C33.1433 17.5655 33.1433 17.1643 33.0701 15.9257ZM21.3735 26.664C18.0368 26.664 15.3338 23.9862 15.3338 20.6807C15.3338 17.3752 18.0368 14.6975 21.3735 14.6975C22.9753 14.6975 24.5116 15.3278 25.6442 16.4499C26.7769 17.572 27.4132 19.0939 27.4132 20.6807C27.4132 22.2676 26.7769 23.7894 25.6442 24.9115C24.5116 26.0336 22.9753 26.664 21.3735 26.664ZM27.6536 15.8713C27.4686 15.8715 27.2854 15.8355 27.1144 15.7655C26.9435 15.6954 26.7882 15.5927 26.6574 15.4631C26.5266 15.3335 26.4228 15.1796 26.3521 15.0103C26.2814 14.8409 26.2451 14.6594 26.2453 14.4761C26.2453 14.293 26.2817 14.1117 26.3524 13.9425C26.4232 13.7733 26.5268 13.6195 26.6576 13.49C26.7883 13.3606 26.9435 13.2578 27.1142 13.1877C27.285 13.1177 27.4681 13.0816 27.653 13.0816C27.8378 13.0816 28.0209 13.1177 28.1917 13.1877C28.3624 13.2578 28.5176 13.3606 28.6483 13.49C28.7791 13.6195 28.8828 13.7733 28.9535 13.9425C29.0242 14.1117 29.0606 14.293 29.0606 14.4761C29.0606 15.2475 28.4309 15.8713 27.6536 15.8713Z" fill="white"/>
<path d="M21.3727 24.5671C23.5395 24.5671 25.296 22.8271 25.296 20.6805C25.296 18.534 23.5395 16.7939 21.3727 16.7939C19.206 16.7939 17.4495 18.534 17.4495 20.6805C17.4495 22.8271 19.206 24.5671 21.3727 24.5671Z" fill="white"/>
<path d="M21.3727 24.5671C23.5395 24.5671 25.296 22.8271 25.296 20.6805C25.296 18.534 23.5395 16.7939 21.3727 16.7939C19.206 16.7939 17.4495 18.534 17.4495 20.6805C17.4495 22.8271 19.206 24.5671 21.3727 24.5671Z" fill="white"/>
</g>
<defs>
<clipPath id="clip0_2_13529">
<rect width="23.8893" height="25.1452" fill="white" transform="translate(9.3772 8.13525)"/>
</clipPath>
</defs>
</svg>
