<svg width="43" height="42" viewBox="0 0 43 42" fill="none" xmlns="http://www.w3.org/2000/svg">
<g clip-path="url(#clip0_2_13534)">
<path d="M18.2034 31.8017V21.3909H15.1542V17.6426H18.2034V14.441C18.2034 11.9251 20.0045 9.61475 24.1548 9.61475C25.8352 9.61475 27.0778 9.76018 27.0778 9.76018L26.9799 13.2605C26.9799 13.2605 25.7127 13.2494 24.3298 13.2494C22.8332 13.2494 22.5934 13.8721 22.5934 14.9056V17.6426H27.0988L26.9028 21.3909H22.5934V31.8017H18.2034Z" fill="white"/>
<path d="M18.2034 31.8017V21.3909H15.1542V17.6426H18.2034V14.441C18.2034 11.9251 20.0045 9.61475 24.1548 9.61475C25.8352 9.61475 27.0778 9.76018 27.0778 9.76018L26.9799 13.2605C26.9799 13.2605 25.7127 13.2494 24.3298 13.2494C22.8332 13.2494 22.5934 13.8721 22.5934 14.9056V17.6426H27.0988L26.9028 21.3909H22.5934V31.8017H18.2034Z" fill="white"/>
</g>
<path d="M41.3662 20.7078C41.3662 31.771 32.3115 40.7501 21.1286 40.7501C9.94582 40.7501 0.89104 31.771 0.89104 20.7078C0.89104 9.64467 9.94582 0.665576 21.1286 0.665576C32.3115 0.665576 41.3662 9.64467 41.3662 20.7078Z" stroke="white" stroke-opacity="0.78" stroke-width="1.33115"/>
<path d="M41.3662 20.7078C41.3662 31.771 32.3115 40.7501 21.1286 40.7501C9.94582 40.7501 0.89104 31.771 0.89104 20.7078C0.89104 9.64467 9.94582 0.665576 21.1286 0.665576C32.3115 0.665576 41.3662 9.64467 41.3662 20.7078Z" stroke="white" stroke-width="1.33115"/>
<defs>
<clipPath id="clip0_2_13534">
<rect width="11.9447" height="22.187" fill="white" transform="translate(15.1552 9.61475)"/>
</clipPath>
</defs>
</svg>
