<svg width="42" height="42" viewBox="0 0 42 42" fill="none" xmlns="http://www.w3.org/2000/svg">
<path d="M30.8532 9.82004L10.541 17.6367C9.15481 18.1924 9.16282 18.9641 10.2867 19.3082L15.5016 20.9317L27.5675 13.3345C28.138 12.9881 28.6593 13.1745 28.2308 13.554L18.4551 22.3585H18.4528L18.4551 22.3596L18.0954 27.724C18.6224 27.724 18.8549 27.4827 19.1505 27.198L21.6835 24.74L26.9523 28.6237C27.9238 29.1576 28.6215 28.8833 28.8632 27.7262L32.3219 11.4595C32.6759 10.043 31.78 9.40159 30.8532 9.82004Z" fill="white"/>
<path d="M30.8532 9.82004L10.541 17.6367C9.15481 18.1924 9.16282 18.9641 10.2867 19.3082L15.5016 20.9317L27.5675 13.3345C28.138 12.9881 28.6593 13.1745 28.2308 13.554L18.4551 22.3585H18.4528L18.4551 22.3596L18.0954 27.724C18.6224 27.724 18.8549 27.4827 19.1505 27.198L21.6835 24.74L26.9523 28.6237C27.9238 29.1576 28.6215 28.8833 28.8632 27.7262L32.3219 11.4595C32.6759 10.043 31.78 9.40159 30.8532 9.82004Z" fill="white"/>
<path d="M41.1726 20.7078C41.1726 31.771 32.1178 40.7501 20.935 40.7501C9.75218 40.7501 0.697406 31.771 0.697406 20.7078C0.697406 9.64467 9.75218 0.665576 20.935 0.665576C32.1178 0.665576 41.1726 9.64467 41.1726 20.7078Z" stroke="white" stroke-opacity="0.78" stroke-width="1.33115"/>
<path d="M41.1726 20.7078C41.1726 31.771 32.1178 40.7501 20.935 40.7501C9.75218 40.7501 0.697406 31.771 0.697406 20.7078C0.697406 9.64467 9.75218 0.665576 20.935 0.665576C32.1178 0.665576 41.1726 9.64467 41.1726 20.7078Z" stroke="white" stroke-width="1.33115"/>
</svg>
